<svg width="327" height="61" viewBox="0 0 327 61" fill="none" xmlns="http://www.w3.org/2000/svg">
<path fill-rule="evenodd" clip-rule="evenodd" d="M29.7727 60.3043H0V38.6025H29.482C30.4902 38.6025 31.4984 38.7947 32.4157 39.2796C33.4784 39.8102 34.2958 40.5422 34.9134 41.4571L43.669 56.8184H43.7144C39.382 59.1423 34.5773 60.3043 29.7636 60.3043H29.7727Z" fill="#C71F38"/>
<path fill-rule="evenodd" clip-rule="evenodd" d="M0 28.712V0.322266H29.7727H29.9634L18.2741 28.712H0Z" fill="#C71F38"/>
<path fill-rule="evenodd" clip-rule="evenodd" d="M51.562 50.7616V50.7159L44.0598 37.6326L43.2423 36.1779C41.4622 33.4606 39.4458 31.768 36.8482 30.4597C34.3959 29.1971 31.7983 28.6665 29.2461 28.7122H29.2007L39.9726 2.11572C43.3422 3.3783 46.5575 5.26302 49.4003 7.78818C61.7617 18.6939 63.0151 37.6784 52.1433 50.0846C51.9525 50.3225 51.7618 50.5237 51.562 50.7616Z" fill="#C71F38"/>
<path d="M99.7067 48.3074C97.4707 48.3074 95.3674 47.7455 93.3968 46.6218C91.464 45.4592 89.9102 43.7736 88.7354 41.5648C87.5606 39.356 86.9731 36.6823 86.9731 33.5435V32.6135C86.9731 29.4747 87.5606 26.8009 88.7354 24.5921C89.9102 22.3833 91.464 20.717 93.3968 19.5933C95.3295 18.4308 97.4329 17.8495 99.7067 17.8495C101.412 17.8495 102.833 18.0626 103.97 18.4889C105.145 18.8764 106.092 19.3802 106.812 20.0002C107.533 20.6202 108.082 21.2789 108.461 21.9764H109.484V9.31934H116.647V47.4936H109.598V44.0061H108.575C107.93 45.0911 106.926 46.0793 105.562 46.9705C104.235 47.8618 102.284 48.3074 99.7067 48.3074ZM101.867 41.9136C104.065 41.9136 105.903 41.1967 107.381 39.7629C108.859 38.2904 109.598 36.1591 109.598 33.3691V32.7878C109.598 29.9978 108.859 27.8859 107.381 26.4521C105.941 24.9796 104.103 24.2433 101.867 24.2433C99.6688 24.2433 97.8308 24.9796 96.3528 26.4521C94.8748 27.8859 94.1358 29.9978 94.1358 32.7878V33.3691C94.1358 36.1591 94.8748 38.2904 96.3528 39.7629C97.8308 41.1967 99.6688 41.9136 101.867 41.9136Z" fill="#0B0B0B"/>
<path d="M135.73 48.3074C132.925 48.3074 130.405 47.7262 128.169 46.5636C125.933 45.4011 124.171 43.7155 122.883 41.5067C121.594 39.2979 120.95 36.6435 120.95 33.5435V32.6135C120.95 29.5134 121.594 26.859 122.883 24.6502C124.171 22.4414 125.933 20.7558 128.169 19.5933C130.405 18.4308 132.925 17.8495 135.73 17.8495C138.534 17.8495 141.054 18.4308 143.29 19.5933C145.526 20.7558 147.289 22.4414 148.577 24.6502C149.866 26.859 150.51 29.5134 150.51 32.6135V33.5435C150.51 36.6435 149.866 39.2979 148.577 41.5067C147.289 43.7155 145.526 45.4011 143.29 46.5636C141.054 47.7262 138.534 48.3074 135.73 48.3074ZM135.73 41.7973C137.928 41.7973 139.747 41.0804 141.187 39.6467C142.627 38.1742 143.347 36.0816 143.347 33.3691V32.7878C143.347 30.0753 142.627 28.0021 141.187 26.5684C139.785 25.0959 137.966 24.3596 135.73 24.3596C133.532 24.3596 131.713 25.0959 130.273 26.5684C128.833 28.0021 128.112 30.0753 128.112 32.7878V33.3691C128.112 36.0816 128.833 38.1742 130.273 39.6467C131.713 41.0804 133.532 41.7973 135.73 41.7973Z" fill="#0B0B0B"/>
<path d="M164.705 47.4936C162.848 47.4936 161.332 46.9124 160.157 45.7499C159.02 44.5486 158.452 42.9598 158.452 40.9836V24.7084H151.403V18.6633H158.452V10.9688H165.614V18.6633H173.345V24.7084H165.614V39.7048C165.614 40.8673 166.145 41.4486 167.206 41.4486H172.663V47.4936H164.705Z" fill="#0B0B0B"/>
<path d="M177.555 47.4936V9.31934H184.718V29.3003H185.741L195.064 18.6633H204.386L191.369 32.6135L204.841 47.4936H195.632L185.741 36.0429H184.718V47.4936H177.555Z" fill="#0B0B0B"/>
<path d="M218.494 48.3074C215.69 48.3074 213.208 47.7068 211.048 46.5055C208.925 45.2655 207.258 43.5411 206.045 41.3323C204.87 39.0848 204.283 36.4498 204.283 33.4272V32.7297C204.283 29.7072 204.87 27.0915 206.045 24.8827C207.22 22.6352 208.868 20.9108 210.991 19.7095C213.113 18.4695 215.576 17.8495 218.381 17.8495C221.147 17.8495 223.554 18.4889 225.6 19.7677C227.647 21.0077 229.238 22.7515 230.375 24.999C231.512 27.2078 232.081 29.7847 232.081 32.7297V35.2291H211.559C211.635 37.2054 212.355 38.8135 213.719 40.0536C215.084 41.2936 216.751 41.9136 218.722 41.9136C220.73 41.9136 222.208 41.4679 223.156 40.5767C224.103 39.6854 224.823 38.6973 225.316 37.6123L231.171 40.7511C230.641 41.7586 229.864 42.863 228.84 44.0642C227.855 45.2267 226.529 46.2343 224.861 47.0868C223.194 47.9005 221.071 48.3074 218.494 48.3074ZM211.616 29.7653H224.804C224.653 28.099 223.99 26.7621 222.815 25.7546C221.678 24.7471 220.181 24.2433 218.324 24.2433C216.391 24.2433 214.856 24.7471 213.719 25.7546C212.582 26.7621 211.881 28.099 211.616 29.7653Z" fill="#0B0B0B"/>
<path d="M236.182 47.4936V18.6633H243.231V21.9183H244.254C244.671 20.7558 245.353 19.9033 246.301 19.3608C247.286 18.8183 248.423 18.547 249.711 18.547H253.122V25.0571H249.598C247.779 25.0571 246.282 25.5609 245.107 26.5684C243.932 27.5371 243.345 29.0484 243.345 31.1022V47.4936H236.182Z" fill="#0B0B0B"/>
<path d="M256.447 47.4936V18.6633H263.496V22.4414H264.519C264.974 21.4339 265.826 20.4845 267.077 19.5933C268.328 18.6633 270.223 18.1983 272.762 18.1983C274.96 18.1983 276.874 18.7214 278.503 19.7677C280.171 20.7752 281.459 22.1896 282.369 24.0108C283.278 25.7934 283.733 27.8859 283.733 30.2884V47.4936H276.57V30.8697C276.57 28.6997 276.04 27.0721 274.979 25.9871C273.955 24.9021 272.477 24.3596 270.545 24.3596C268.347 24.3596 266.641 25.1152 265.429 26.6265C264.216 28.099 263.609 30.1722 263.609 32.846V47.4936H256.447Z" fill="#0B0B0B"/>
<path d="M302.05 48.3074C299.245 48.3074 296.763 47.7068 294.603 46.5055C292.48 45.2655 290.813 43.5411 289.6 41.3323C288.425 39.0848 287.838 36.4498 287.838 33.4272V32.7297C287.838 29.7072 288.425 27.0915 289.6 24.8827C290.775 22.6352 292.424 20.9108 294.546 19.7095C296.668 18.4695 299.131 17.8495 301.936 17.8495C304.702 17.8495 307.109 18.4889 309.155 19.7677C311.202 21.0077 312.793 22.7515 313.93 24.999C315.067 27.2078 315.636 29.7847 315.636 32.7297V35.2291H295.114C295.19 37.2054 295.91 38.8135 297.274 40.0536C298.639 41.2936 300.306 41.9136 302.277 41.9136C304.285 41.9136 305.763 41.4679 306.711 40.5767C307.658 39.6854 308.378 38.6973 308.871 37.6123L314.726 40.7511C314.196 41.7586 313.419 42.863 312.396 44.0642C311.41 45.2267 310.084 46.2343 308.416 47.0868C306.749 47.9005 304.627 48.3074 302.05 48.3074ZM295.171 29.7653H308.359C308.208 28.099 307.545 26.7621 306.37 25.7546C305.233 24.7471 303.736 24.2433 301.879 24.2433C299.946 24.2433 298.411 24.7471 297.274 25.7546C296.138 26.7621 295.436 28.099 295.171 29.7653Z" fill="#0B0B0B"/>
<path d="M319.737 47.4936V9.31934H326.9V47.4936H319.737Z" fill="#0B0B0B"/>
</svg>
